<?xml version="1.0" encoding="UTF-8"?>
<svg width="31px" height="31px" viewBox="0 0 31 31" version="1.1" xmlns="http://www.w3.org/2000/svg" xmlns:xlink="http://www.w3.org/1999/xlink">
    <!-- Generator: Sketch 64 (93537) - https://sketch.com -->
    <title>btn_delete@2x</title>
    <desc>Created with Sketch.</desc>
    <g id="页面-1" stroke="none" stroke-width="1" fill="none" fill-rule="evenodd">
        <g id="搜索" transform="translate(-337.000000, -145.000000)" fill="#CCCCCC" fill-rule="nonzero">
            <g id="btn_delete" transform="translate(337.000000, 145.000000)">
                <g transform="translate(7.566965, 7.566965)" id="形状">
                    <path d="M7.36608,1.77635684e-15 C3.2901824,1.77635684e-15 1.77635684e-15,3.2901824 1.77635684e-15,7.36608 C1.77635684e-15,11.4419776 3.2901824,14.73216 7.36608,14.73216 C11.4419776,14.73216 14.73216,11.4419776 14.73216,7.36608 C14.73216,3.2901824 11.4419776,1.77635684e-15 7.36608,1.77635684e-15 M10.4598336,10.4598336 C10.2634048,10.6562624 9.9196544,10.6562624 9.7232256,10.4598336 L7.36608,8.102688 L5.0089344,10.4598336 C4.8125056,10.6562624 4.4687552,10.6562624 4.2723264,10.4598336 C4.0758976,10.2634048 4.0758976,9.9196544 4.2723264,9.7232256 L6.629472,7.36608 L4.2723264,5.0089344 C4.0758976,4.8125056 4.0758976,4.4687552 4.2723264,4.2723264 C4.4687552,4.0758976 4.8125056,4.0758976 5.0089344,4.2723264 L7.36608,6.629472 L9.7232256,4.2723264 C9.9196544,4.0758976 10.2634048,4.0758976 10.4598336,4.2723264 C10.6562624,4.4687552 10.6562624,4.8125056 10.4598336,5.0089344 L8.102688,7.36608 L10.4598336,9.7232256 C10.7053696,9.9196544 10.7053696,10.2634048 10.4598336,10.4598336"></path>
                </g>
            </g>
        </g>
    </g>
</svg>