<?xml version="1.0" encoding="UTF-8"?>
<svg width="30px" height="28px" viewBox="0 0 30 28" version="1.1" xmlns="http://www.w3.org/2000/svg" xmlns:xlink="http://www.w3.org/1999/xlink">
    <!-- Generator: Sketch 64 (93537) - https://sketch.com -->
    <title>cart 2</title>
    <desc>Created with Sketch.</desc>
    <g id="页面-1" stroke="none" stroke-width="1" fill="none" fill-rule="evenodd">
        <g id="cart" transform="translate(1.000000, 1.000000)" fill="#000000" fill-rule="nonzero">
            <path d="M4.193,-0.673 C4.52981406,-0.673 4.826121,-0.462848241 4.94183799,-0.154638363 L4.97352964,-0.0484237189 L9.388,19.593 L22.58,19.594 C22.987841,19.594 23.3244016,19.8991881 23.3737669,20.2936497 L23.38,20.394 C23.38,20.801841 23.0748119,21.1384016 22.6803503,21.1877669 L22.58,21.194 L8.748,21.194 C8.41118594,21.194 8.114879,20.9838482 7.99916201,20.6756384 L7.96747036,20.5694237 L3.552,0.927 L0.344,0.927 C-0.063841046,0.927 -0.400401581,0.621811853 -0.449766864,0.2273503 L-0.456,0.127 C-0.456,-0.280841046 -0.150811853,-0.617401581 0.2436497,-0.666766864 L0.344,-0.673 L4.193,-0.673 Z" id="路径"></path>
            <path d="M9.354,19.602 C7.37547306,19.602 5.772,21.2058712 5.772,23.184 C5.772,25.1628278 7.3751722,26.766 9.354,26.766 C11.3325269,26.766 12.936,25.1621288 12.936,23.184 C12.936,21.2051722 11.3328278,19.602 9.354,19.602 Z M9.354,21.202 C10.4491722,21.202 11.336,22.0888278 11.336,23.184 C11.336,24.2785621 10.4487824,25.166 9.354,25.166 C8.2588278,25.166 7.372,24.2791722 7.372,23.184 C7.372,22.0894379 8.2592176,21.202 9.354,21.202 Z" id="路径"></path>
            <path d="M22.58,19.602 C20.6014731,19.602 18.998,21.2058712 18.998,23.184 C18.998,25.1628278 20.6011722,26.766 22.58,26.766 C24.5585269,26.766 26.162,25.1621288 26.162,23.184 C26.162,21.2051722 24.5588278,19.602 22.58,19.602 Z M22.58,21.202 C23.6751722,21.202 24.562,22.0888278 24.562,23.184 C24.562,24.2785621 23.6747824,25.166 22.58,25.166 C21.4848278,25.166 20.598,24.2791722 20.598,23.184 C20.598,22.0894379 21.4852176,21.202 22.58,21.202 Z" id="路径"></path>
            <path d="M27.311,4.591 C27.8108714,4.591 28.1789773,5.0405154 28.1011043,5.51764734 L28.0774765,5.62015885 L25.3594765,14.7111589 C25.2694516,15.0122686 25.0132194,15.2291071 24.7090708,15.273576 L24.593,15.282 L6.888,15.282 L6.888,13.682 L23.997,13.681 L26.236,6.19 L4.92,6.191 L4.92,4.591 L27.311,4.591 Z" id="路径"></path>
        </g>
    </g>
</svg>