<?xml version="1.0" encoding="UTF-8"?>
<svg width="30px" height="30px" viewBox="0 0 30 30" version="1.1" xmlns="http://www.w3.org/2000/svg" xmlns:xlink="http://www.w3.org/1999/xlink">
    <!-- Generator: Sketch 64 (93537) - https://sketch.com -->
    <title>Slice 1</title>
    <desc>Created with Sketch.</desc>
    <g id="页面-1" stroke="none" stroke-width="1" fill="none" fill-rule="evenodd">
        <g id="category" transform="translate(1.000000, 1.000000)" fill="#000000" fill-rule="nonzero">
            <path d="M6.242,-0.6012 C2.65142115,-0.6012 -0.2602,2.31042115 -0.2602,5.901 C-0.2602,9.49190335 2.6507456,12.4032 6.242,12.4032 C9.83257885,12.4032 12.7442,9.49157885 12.7442,5.901 C12.7442,2.31009665 9.8332544,-0.6012 6.242,-0.6012 Z M6.242,0.9472 C8.97805489,0.9472 11.1958,3.16521256 11.1958,5.901 C11.1958,8.63642115 8.97742115,10.8548 6.242,10.8548 C3.50594511,10.8548 1.2882,8.63678744 1.2882,5.901 C1.2882,3.16557885 3.50657885,0.9472 6.242,0.9472 Z" id="路径"></path>
            <path d="M6.242,15.1348 C2.65142115,15.1348 -0.2602,18.0464211 -0.2602,21.637 C-0.2602,25.2279033 2.6507456,28.1392 6.242,28.1392 C9.83257885,28.1392 12.7442,25.2275789 12.7442,21.637 C12.7442,18.0460967 9.8332544,15.1348 6.242,15.1348 Z M6.242,16.6832 C8.97805489,16.6832 11.1958,18.9012126 11.1958,21.637 C11.1958,24.3724211 8.97742115,26.5908 6.242,26.5908 C3.50594511,26.5908 1.2882,24.3727874 1.2882,21.637 C1.2882,18.9015789 3.50657885,16.6832 6.242,16.6832 Z" id="路径"></path>
            <path d="M21.977,-0.6012 C18.3864211,-0.6012 15.4748,2.31042115 15.4748,5.901 C15.4748,9.49190335 18.3857456,12.4032 21.977,12.4032 C25.5675789,12.4032 28.4792,9.49157885 28.4792,5.901 C28.4792,2.31009665 25.5682544,-0.6012 21.977,-0.6012 Z M21.977,0.9472 C24.7130549,0.9472 26.9308,3.16521256 26.9308,5.901 C26.9308,8.63642115 24.7124211,10.8548 21.977,10.8548 C19.2409451,10.8548 17.0232,8.63678744 17.0232,5.901 C17.0232,3.16557885 19.2415789,0.9472 21.977,0.9472 Z" id="路径"></path>
            <path d="M21.977,15.1348 C18.3864211,15.1348 15.4748,18.0464211 15.4748,21.637 C15.4748,25.2279033 18.3857456,28.1392 21.977,28.1392 C25.5675789,28.1392 28.4792,25.2275789 28.4792,21.637 C28.4792,18.0460967 25.5682544,15.1348 21.977,15.1348 Z M21.977,16.6832 C24.7130549,16.6832 26.9308,18.9012126 26.9308,21.637 C26.9308,24.3724211 24.7124211,26.5908 21.977,26.5908 C19.2409451,26.5908 17.0232,24.3727874 17.0232,21.637 C17.0232,18.9015789 19.2415789,16.6832 21.977,16.6832 Z" id="路径"></path>
        </g>
    </g>
</svg>