<?xml version="1.0" encoding="UTF-8"?>
<svg width="28px" height="29px" viewBox="0 0 28 29" version="1.1" xmlns="http://www.w3.org/2000/svg" xmlns:xlink="http://www.w3.org/1999/xlink">
    <!-- Generator: Sketch 64 (93537) - https://sketch.com -->
    <title>Slice 1</title>
    <desc>Created with Sketch.</desc>
    <g id="页面-1" stroke="none" stroke-width="1" fill="none" fill-rule="evenodd">
        <g id="home" transform="translate(1.000000, 1.000000)" fill="#000000" fill-rule="nonzero">
            <path d="M13.3962143,-0.23609844 L13.315,-0.156 L13.2842922,-0.165266376 C13.1713542,-0.19354116 13.0560356,-0.212122259 12.9393627,-0.220761369 L12.763466,-0.226232502 C12.3525696,-0.221172079 11.9519757,-0.0930106367 11.6126479,0.14642157 L0.591269504,7.90698344 C0.0485725136,8.28864259 -0.2742,8.91185193 -0.2742,9.576 L-0.2742,25.852 C-0.2742,26.4000488 -0.0560758148,26.9158083 0.32355793,27.2954421 C0.703191675,27.6750758 1.2189512,27.8932 1.767,27.8932 L8.3403813,27.8932 L8.34819957,20.5038191 C8.40089307,19.6090138 8.81306604,18.743126 9.48913111,18.1101601 C10.1573095,17.4844326 11.0331713,17.1312 11.967,17.1312 L14.4868512,17.138197 C15.3830312,17.1908957 16.2487363,17.6030847 16.8804874,18.2787543 C17.5065674,18.9473095 17.8598,19.8231713 17.8598,20.757 L17.8586783,27.8922 L24.434,27.8922 C24.9815024,27.8922 25.4956476,27.6745792 25.8762481,27.2956335 C26.2572814,26.9162568 26.4752,26.399977 26.4752,25.851 L26.4752,9.609 C26.4752,8.92782638 26.1354845,8.29146407 25.5697169,7.91267384 L13.3962143,-0.23609844 Z M12.782,1.32196913 C12.8819177,1.32089855 12.9786093,1.34928776 13.0621902,1.40526397 L24.7083407,9.19936473 C24.8447229,9.29067481 24.9268,9.44442329 24.9268,9.609 L24.9268,25.851 C24.9268,25.9849741 24.8751314,26.1073844 24.7837519,26.1983665 L24.7241244,26.2493575 C24.6403676,26.310499 24.5404097,26.3438 24.434,26.3438 L19.407,26.343 L19.4082,20.7571217 C19.4082,19.4261106 18.9028421,18.1730449 18.0110987,17.2208034 C17.1103245,16.2574082 15.8726081,15.668093 14.5334514,15.5910772 L11.9691488,15.582803 C10.6361106,15.5828 9.3830449,16.0881579 8.43080336,16.9799013 L8.24311102,17.164744 C7.39089879,18.0475622 6.87294433,19.208918 6.80107716,20.4585486 L6.793,26.344 L1.767,26.3448 C1.63381098,26.3448 1.51055833,26.2926742 1.41844207,26.2005579 C1.32632581,26.1084417 1.2742,25.985189 1.2742,25.852 L1.2742,9.576 C1.2742,9.41530818 1.3521117,9.26487623 1.48236078,9.17327673 L12.5047305,1.41201656 L12.5912035,1.363127 C12.6212753,1.34993514 12.6524816,1.33987068 12.6844831,1.33300179 L12.782,1.32196913 Z" id="路径"></path>
        </g>
    </g>
</svg>