<?xml version="1.0" encoding="UTF-8"?>
<svg width="30px" height="30px" viewBox="0 0 30 30" version="1.1" xmlns="http://www.w3.org/2000/svg" xmlns:xlink="http://www.w3.org/1999/xlink">
    <!-- Generator: Sketch 64 (93537) - https://sketch.com -->
    <title>Slice 1</title>
    <desc>Created with Sketch.</desc>
    <g id="页面-1" stroke="none" stroke-width="1" fill="none" fill-rule="evenodd">
        <g id="delete" fill="#000000" fill-rule="nonzero">
            <path d="M14.884,0.384 C6.861,0.384 0.384,6.861 0.384,14.884 C0.384,22.907 6.861,29.384 14.884,29.384 C22.907,29.384 29.384,22.907 29.384,14.884 C29.384,6.861 22.907,0.384 14.884,0.384 Z M20.974,20.974 C20.587,21.361 19.911,21.361 19.524,20.974 L14.884,16.334 L10.244,20.974 C9.857,21.361 9.181,21.361 8.794,20.974 C8.407,20.587 8.407,19.911 8.794,19.524 L13.434,14.884 L8.794,10.244 C8.407,9.857 8.407,9.181 8.794,8.794 C9.181,8.407 9.857,8.407 10.244,8.794 L14.884,13.434 L19.524,8.794 C19.911,8.407 20.587,8.407 20.974,8.794 C21.361,9.181 21.361,9.857 20.974,10.244 L16.334,14.884 L20.974,19.524 C21.457,19.911 21.457,20.587 20.974,20.974 Z" id="形状"></path>
        </g>
    </g>
</svg>