<?xml version="1.0" encoding="UTF-8"?>
<svg width="29px" height="30px" viewBox="0 0 29 30" version="1.1" xmlns="http://www.w3.org/2000/svg" xmlns:xlink="http://www.w3.org/1999/xlink">
    <!-- Generator: Sketch 64 (93537) - https://sketch.com -->
    <title>Slice 1</title>
    <desc>Created with Sketch.</desc>
    <g id="页面-1" stroke="none" stroke-width="1" fill="none" fill-rule="evenodd">
        <g id="search" transform="translate(1.000000, 1.000000)" fill="#000000" fill-rule="nonzero">
            <path d="M13.167,-0.61885 C5.80982137,-0.61885 -0.15485,5.34582137 -0.15485,12.703 C-0.15485,20.0601786 5.80982137,26.02485 13.167,26.02485 C20.5241786,26.02485 26.48885,20.0601786 26.48885,12.703 C26.48885,5.34582137 20.5241786,-0.61885 13.167,-0.61885 Z M13.167,1.66685 C19.2618214,1.66685 24.20315,6.60817863 24.20315,12.703 C24.20315,18.7978214 19.2618214,23.73915 13.167,23.73915 C7.07217863,23.73915 2.13085,18.7978214 2.13085,12.703 C2.13085,6.60817863 7.07217863,1.66685 13.167,1.66685 Z" id="路径"></path>
            <path d="M20.569883,21.429883 C20.9843144,21.0154517 21.6378479,20.9858494 22.0864367,21.3410763 L22.186117,21.429883 L27.246117,26.489883 C27.6924277,26.9361937 27.6924277,27.6598063 27.246117,28.106117 C26.8316856,28.5205483 26.1781521,28.5501506 25.7295633,28.1949237 L25.629883,28.106117 L20.569883,23.046117 C20.1235723,22.5998063 20.1235723,21.8761937 20.569883,21.429883 Z" id="路径"></path>
        </g>
    </g>
</svg>