<?xml version="1.0" encoding="UTF-8"?>
<svg width="26px" height="30px" viewBox="0 0 26 30" version="1.1" xmlns="http://www.w3.org/2000/svg" xmlns:xlink="http://www.w3.org/1999/xlink">
    <!-- Generator: Sketch 64 (93537) - https://sketch.com -->
    <title>Slice 1</title>
    <desc>Created with Sketch.</desc>
    <g id="页面-1" stroke="none" stroke-width="1" fill="none" fill-rule="evenodd">
        <g id="user" transform="translate(1.000000, 1.000000)" fill="#000000" fill-rule="nonzero">
            <path d="M18.274,15.501 L5.658,15.501 C3.96858814,15.501 2.38394106,16.1715089 1.21402967,17.3425996 C0.0437217376,18.5140873 -0.627,20.098524 -0.627,21.786 L-0.627,23.637 C-0.627,24.8274312 -0.153991605,25.9461234 0.67088456,26.7722551 C1.49553386,27.5981596 2.61458958,28.071 3.807,28.071 L20.125,28.071 C21.3154312,28.071 22.4341234,27.5979916 23.2602551,26.7731154 C24.0861596,25.9484661 24.559,24.8294104 24.559,23.637 L24.559,21.786 C24.559,20.0965881 23.8884911,18.5119411 22.7174004,17.3420297 C21.5459127,16.1717217 19.961476,15.501 18.274,15.501 Z M5.658,17.101 L18.274,17.101 C19.532718,17.101 20.7119317,17.6001832 21.5865996,18.4739703 C22.4602155,19.3467065 22.959,20.5255087 22.959,21.786 L22.959,23.637 C22.959,24.4007229 22.6577495,25.1136824 22.1297449,25.6408846 C21.600523,26.1693022 20.8869903,26.471 20.125,26.471 L3.807,26.471 C3.04327708,26.471 2.3303176,26.1697495 1.80311544,25.6417449 C1.27469779,25.112523 0.973,24.3989903 0.973,23.637 L0.973,21.786 C0.973,20.527282 1.47218325,19.3480683 2.34597033,18.4734004 C3.21870646,17.5997845 4.39750867,17.101 5.658,17.101 Z" id="路径"></path>
            <path d="M11.966,-0.542 C8.2301722,-0.542 5.201,2.4871722 5.201,6.223 C5.201,9.9588278 8.2301722,12.988 11.966,12.988 C15.7018278,12.988 18.731,9.9588278 18.731,6.223 C18.731,2.4871722 15.7018278,-0.542 11.966,-0.542 Z M11.966,1.058 C14.8181722,1.058 17.131,3.3708278 17.131,6.223 C17.131,9.0751722 14.8181722,11.388 11.966,11.388 C9.1138278,11.388 6.801,9.0751722 6.801,6.223 C6.801,3.3708278 9.1138278,1.058 11.966,1.058 Z" id="路径"></path>
        </g>
    </g>
</svg>